<svg version="1.1" xmlns="http://www.w3.org/2000/svg" viewBox="0 0 498.06391250716877 589.0387615290554" width="498.06391250716877" height="589.0387615290554" class="excalidraw-svg">
  <!-- svg-source:excalidraw -->
  
  <defs>
    <style class="style-fonts">
      
    </style>
    
  </defs>
  <rect x="0" y="0" width="498.06391250716877" height="589.0387615290554" fill="#ffffff"></rect><g transform="translate(10.891910284528308 10) rotate(0 238.14004596905608 54.40652735622629)" stroke="none"><path fill="#1e1e1e" d="M 0.41,-3.12 Q 0.41,-3.12 4.26,-2.63 8.11,-2.13 13.19,-1.85 18.26,-1.57 25.31,-1.42 32.36,-1.27 41.77,-1.19 51.18,-1.11 58.52,-1.07 65.86,-1.02 80.00,-0.99 94.14,-0.96 104.36,-0.17 114.58,0.61 123.34,1.99 132.10,3.37 142.01,5.50 151.91,7.64 160.22,9.57 168.52,11.51 175.78,12.57 183.03,13.62 188.14,14.07 193.25,14.53 198.71,14.72 204.18,14.91 213.42,14.99 222.66,15.08 231.73,15.11 240.79,15.15 250.03,15.16 259.26,15.18 268.06,15.19 276.86,15.19 282.65,15.20 288.44,15.20 294.49,15.20 300.54,15.20 304.40,15.12 308.25,15.03 311.17,14.82 314.09,14.62 316.87,14.44 319.65,14.27 323.14,14.22 326.63,14.18 330.93,14.32 335.23,14.46 338.60,14.37 341.97,14.28 346.73,14.41 351.50,14.53 356.86,14.63 362.22,14.72 367.06,14.78 371.90,14.85 376.78,14.90 381.66,14.95 386.55,14.98 391.44,15.02 396.09,15.04 400.73,15.07 405.01,15.09 409.30,15.11 412.91,14.99 416.53,14.87 420.37,14.82 424.21,14.77 426.36,14.55 428.51,14.32 431.22,14.17 433.92,14.01 436.34,14.12 438.76,14.23 441.94,14.47 445.13,14.71 448.57,14.59 452.00,14.47 454.18,14.33 456.35,14.18 459.37,15.14 462.39,16.10 463.82,17.89 465.24,19.67 466.56,23.05 467.87,26.43 469.75,35.93 471.62,45.42 473.27,55.00 474.92,64.57 476.30,73.28 477.68,81.99 478.46,88.57 479.24,95.15 479.69,98.73 480.13,102.31 478.20,105.95 476.28,109.58 473.39,109.57 470.49,109.56 465.71,108.51 460.93,107.45 457.01,106.76 453.09,106.08 446.91,105.45 440.74,104.83 427.14,104.52 413.54,104.22 399.27,104.06 385.00,103.90 372.26,103.81 359.53,103.72 347.71,103.67 335.88,103.62 321.88,103.59 307.88,103.55 299.37,103.53 290.86,103.51 281.60,103.50 272.34,103.48 264.08,103.73 255.83,103.97 248.84,104.83 241.84,105.69 233.71,106.83 225.58,107.96 216.66,108.71 207.73,109.46 194.92,109.77 182.11,110.09 164.11,110.22 146.11,110.36 127.69,110.41 109.27,110.47 89.65,110.49 70.03,110.51 58.61,110.52 47.20,110.53 38.76,110.54 30.31,110.54 24.67,110.54 19.04,110.54 16.26,111.02 13.49,111.49 11.17,111.41 8.85,111.33 6.77,109.30 4.69,107.28 2.28,100.42 -0.12,93.56 -0.77,87.19 -1.42,80.83 -1.90,74.31 -2.37,67.79 -2.79,61.96 -3.21,56.13 -3.37,51.28 -3.52,46.44 -3.57,42.06 -3.62,37.69 -3.89,35.33 -4.17,32.97 -4.29,28.89 -4.42,24.80 -4.14,21.55 -3.86,18.30 -1.75,15.06 0.34,11.83 2.33,9.74 4.32,7.65 6.46,6.63 8.59,5.61 10.85,5.35 13.11,5.09 14.96,4.97 16.81,4.85 17.76,4.97 18.70,5.08 19.56,5.50 20.42,5.91 21.10,6.57 21.78,7.23 22.22,8.08 22.65,8.93 22.79,9.87 22.93,10.81 22.77,11.75 22.60,12.68 22.14,13.52 21.69,14.35 20.99,15.00 20.29,15.64 19.42,16.03 18.55,16.42 17.60,16.51 16.65,16.60 15.73,16.38 14.80,16.16 13.99,15.66 13.18,15.16 12.58,14.43 11.97,13.69 11.63,12.80 11.29,11.92 11.25,10.96 11.21,10.01 11.48,9.10 11.75,8.19 12.29,7.41 12.84,6.63 13.60,6.06 14.37,5.50 15.27,5.21 16.18,4.91 17.13,4.93 18.08,4.94 18.98,5.26 19.88,5.57 20.63,6.16 21.38,6.74 21.90,7.54 22.42,8.33 22.66,9.25 22.91,10.17 22.84,11.12 22.78,12.07 22.41,12.95 22.05,13.83 21.42,14.55 20.80,15.26 19.98,15.74 19.15,16.22 18.22,16.41 17.29,16.61 17.29,16.61 17.29,16.61 14.08,16.59 10.88,16.57 7.81,19.05 4.75,21.52 4.22,23.66 3.69,25.80 3.09,29.33 2.50,32.86 2.30,35.21 2.10,37.57 2.24,41.87 2.37,46.17 2.64,50.89 2.91,55.60 3.50,61.40 4.09,67.21 4.78,73.59 5.47,79.96 6.34,85.84 7.22,91.71 8.35,95.79 9.48,99.87 11.21,102.62 12.94,105.37 15.99,105.33 19.03,105.28 24.67,105.28 30.31,105.28 38.75,105.28 47.19,105.27 58.61,105.26 70.02,105.25 89.64,105.22 109.26,105.20 127.66,105.14 146.07,105.08 164.02,104.95 181.98,104.81 194.63,104.50 207.29,104.18 216.07,103.44 224.84,102.71 233.02,101.56 241.19,100.41 248.43,99.51 255.66,98.62 264.00,98.35 272.34,98.08 281.60,98.07 290.86,98.06 299.37,98.04 307.89,98.03 321.89,98.01 335.89,97.99 347.72,97.97 359.55,97.95 372.29,97.95 385.03,97.94 399.34,97.96 413.64,97.99 427.46,98.12 441.27,98.26 447.72,98.66 454.16,99.07 458.21,99.59 462.26,100.12 467.65,101.60 473.04,103.09 472.69,99.62 472.35,96.14 471.27,89.75 470.20,83.35 468.42,74.80 466.64,66.24 464.47,56.92 462.29,47.59 460.01,39.16 457.72,30.74 456.16,27.81 454.60,24.89 451.18,24.67 447.76,24.45 444.24,23.93 440.73,23.42 437.32,22.54 433.92,21.65 431.21,21.50 428.51,21.34 426.36,21.12 424.21,20.89 420.37,20.85 416.53,20.80 412.91,20.68 409.30,20.56 405.01,20.58 400.73,20.60 396.09,20.62 391.44,20.65 386.55,20.68 381.66,20.72 376.78,20.77 371.90,20.82 367.06,20.88 362.22,20.95 356.86,21.04 351.50,21.13 346.73,21.26 341.97,21.38 338.60,21.30 335.23,21.21 330.93,21.35 326.63,21.49 323.14,21.44 319.65,21.40 316.87,21.22 314.09,21.05 311.17,20.84 308.25,20.64 304.40,20.55 300.54,20.46 294.49,20.46 288.44,20.46 282.65,20.46 276.86,20.45 268.06,20.45 259.26,20.44 250.01,20.43 240.77,20.41 231.69,20.38 222.62,20.35 213.30,20.26 203.99,20.18 198.39,19.99 192.78,19.79 187.53,19.33 182.27,18.87 174.79,17.78 167.32,16.69 159.05,14.77 150.79,12.86 141.03,10.77 131.27,8.67 122.72,7.34 114.16,6.01 104.15,5.26 94.14,4.51 79.99,4.52 65.84,4.54 58.50,4.55 51.16,4.56 41.72,4.56 32.28,4.56 25.15,4.53 18.01,4.49 12.64,4.33 7.27,4.18 3.42,3.65 -0.41,3.12 -0.78,3.03 -1.15,2.93 -1.48,2.75 -1.82,2.57 -2.10,2.32 -2.38,2.06 -2.59,1.74 -2.81,1.43 -2.94,1.07 -3.07,0.71 -3.11,0.34 -3.15,-0.03 -3.10,-0.41 -3.05,-0.79 -2.91,-1.14 -2.77,-1.49 -2.55,-1.81 -2.33,-2.12 -2.04,-2.36 -1.76,-2.61 -1.42,-2.79 -1.08,-2.96 -0.71,-3.05 -0.34,-3.13 0.03,-3.13 0.41,-3.12 0.41,-3.12 L 0.41,-3.12 Z"></path></g><g transform="translate(166.0842997924525 16.243371991698098) rotate(0 4.013596280377357 53.514617071697984)" stroke="none"><path fill="#1e1e1e" d="M 3.92,-0.23 Q 3.92,-0.23 4.00,4.13 4.08,8.50 4.57,15.70 5.06,22.90 5.75,36.03 6.43,49.16 6.70,60.15 6.96,71.14 6.54,77.96 6.11,84.79 5.92,89.40 5.72,94.01 5.89,96.50 6.06,98.98 7.75,101.05 9.44,103.12 9.98,103.51 10.53,103.89 10.92,104.43 11.32,104.97 11.52,105.60 11.72,106.24 11.71,106.91 11.70,107.58 11.48,108.21 11.25,108.83 10.84,109.36 10.43,109.88 9.87,110.25 9.31,110.62 8.66,110.78 8.01,110.95 7.35,110.90 6.68,110.86 6.07,110.60 5.45,110.34 4.95,109.90 4.45,109.46 4.11,108.88 3.78,108.30 3.64,107.65 3.51,106.99 3.60,106.33 3.68,105.67 3.97,105.06 4.26,104.46 4.73,103.99 5.20,103.51 5.79,103.21 6.39,102.90 7.05,102.81 7.71,102.71 8.37,102.83 9.02,102.95 9.61,103.27 10.19,103.59 10.64,104.09 11.10,104.58 11.37,105.19 11.64,105.80 11.70,106.47 11.76,107.13 11.60,107.78 11.45,108.43 11.09,109.00 10.74,109.57 10.22,109.99 9.71,110.41 9.08,110.65 8.46,110.89 7.79,110.91 7.12,110.94 6.48,110.75 5.84,110.56 5.84,110.56 5.84,110.56 3.42,108.78 1.00,107.01 0.24,102.91 -0.51,98.80 -0.21,96.31 0.09,93.82 0.21,89.15 0.33,84.47 0.65,77.89 0.97,71.32 0.57,60.42 0.18,49.53 -0.68,36.50 -1.55,23.47 -2.30,16.20 -3.06,8.92 -3.49,4.57 -3.92,0.23 -3.89,-0.24 -3.86,-0.71 -3.72,-1.16 -3.58,-1.61 -3.33,-2.02 -3.08,-2.42 -2.75,-2.76 -2.41,-3.09 -2.01,-3.34 -1.60,-3.58 -1.15,-3.72 -0.70,-3.86 -0.22,-3.89 0.24,-3.92 0.70,-3.83 1.17,-3.75 1.60,-3.55 2.03,-3.36 2.41,-3.06 2.78,-2.77 3.07,-2.40 3.36,-2.02 3.56,-1.59 3.75,-1.16 3.83,-0.69 3.92,-0.23 3.92,-0.23 L 3.92,-0.23 Z"></path></g><g transform="translate(265.08634137509375 26.946295406037734) rotate(0 11.14887855660379 57.974168494339466)" stroke="none"><path fill="#1e1e1e" d="M 3.44,-0.61 Q 3.44,-0.61 4.61,6.58 5.78,13.78 6.26,22.66 6.74,31.55 7.41,41.12 8.09,50.69 9.88,59.20 11.66,67.71 13.91,74.32 16.15,80.94 18.13,86.08 20.10,91.23 21.49,96.12 22.88,101.01 23.58,104.99 24.27,108.97 24.78,111.66 25.28,114.35 25.27,114.86 25.25,115.37 25.07,115.86 24.89,116.34 24.57,116.73 24.24,117.13 23.81,117.41 23.38,117.68 22.88,117.80 22.38,117.93 21.87,117.88 21.36,117.84 20.89,117.63 20.42,117.43 20.04,117.08 19.66,116.74 19.40,116.29 19.15,115.84 19.06,115.34 18.97,114.83 19.04,114.32 19.11,113.82 19.34,113.36 19.57,112.90 19.93,112.54 20.30,112.18 20.76,111.95 21.22,111.72 21.73,111.66 22.24,111.59 22.74,111.69 23.25,111.79 23.69,112.04 24.14,112.30 24.48,112.68 24.82,113.07 25.02,113.54 25.22,114.01 25.26,114.52 25.30,115.03 25.17,115.53 25.05,116.03 24.77,116.46 24.49,116.89 24.09,117.21 23.69,117.53 23.20,117.71 22.72,117.88 22.21,117.89 21.69,117.90 21.20,117.75 20.71,117.60 20.30,117.30 19.88,116.99 19.59,116.58 19.29,116.16 19.14,115.67 18.99,115.17 18.99,115.18 18.99,115.18 18.79,112.50 18.60,109.83 18.13,106.17 17.65,102.51 16.31,97.86 14.96,93.22 12.90,87.99 10.85,82.76 8.44,75.84 6.04,68.91 4.11,60.03 2.18,51.16 1.37,41.55 0.56,31.93 -0.04,23.43 -0.65,14.93 -2.05,7.77 -3.44,0.61 -3.47,0.19 -3.49,-0.22 -3.41,-0.64 -3.34,-1.05 -3.16,-1.44 -2.99,-1.82 -2.72,-2.15 -2.46,-2.48 -2.13,-2.74 -1.79,-3.00 -1.41,-3.17 -1.02,-3.35 -0.61,-3.42 -0.19,-3.49 0.22,-3.47 0.64,-3.44 1.05,-3.31 1.45,-3.18 1.81,-2.96 2.17,-2.74 2.47,-2.44 2.76,-2.14 2.98,-1.78 3.20,-1.42 3.32,-1.01 3.44,-0.61 3.44,-0.61 L 3.44,-0.61 Z"></path></g><g transform="translate(374.7913063720747 23.378654267924503) rotate(0 2.2297757113207126 32.108770243018796)" stroke="none"><path fill="#1e1e1e" d="M 4.03,0.27 Q 4.03,0.27 3.33,7.70 2.63,15.12 2.27,19.76 1.91,24.41 3.24,33.00 4.56,41.60 5.36,47.20 6.16,52.81 6.94,55.57 7.73,58.33 8.53,60.20 9.32,62.08 9.43,62.65 9.53,63.23 9.44,63.81 9.36,64.39 9.09,64.91 8.82,65.43 8.40,65.84 7.98,66.25 7.45,66.50 6.93,66.75 6.34,66.83 5.76,66.90 5.19,66.78 4.62,66.66 4.11,66.37 3.60,66.07 3.22,65.63 2.83,65.19 2.61,64.65 2.39,64.11 2.35,63.52 2.31,62.94 2.46,62.37 2.60,61.81 2.93,61.32 3.25,60.83 3.71,60.47 4.17,60.11 4.72,59.91 5.28,59.72 5.86,59.71 6.45,59.70 7.00,59.88 7.56,60.06 8.03,60.41 8.50,60.76 8.84,61.24 9.17,61.72 9.34,62.28 9.50,62.84 9.48,63.43 9.46,64.01 9.25,64.56 9.04,65.10 8.66,65.56 8.29,66.01 7.79,66.32 7.30,66.62 6.73,66.76 6.15,66.89 5.57,66.84 4.99,66.78 4.45,66.54 3.92,66.30 3.49,65.91 3.06,65.51 2.78,65.00 2.50,64.48 2.50,64.48 2.50,64.48 1.80,62.13 1.11,59.77 0.64,56.76 0.17,53.75 -0.76,48.18 -1.70,42.62 -3.27,33.37 -4.84,24.12 -4.76,19.37 -4.68,14.62 -4.35,7.17 -4.03,-0.27 -3.94,-0.75 -3.85,-1.23 -3.64,-1.67 -3.44,-2.12 -3.13,-2.50 -2.83,-2.88 -2.44,-3.18 -2.06,-3.47 -1.61,-3.67 -1.17,-3.87 -0.69,-3.95 -0.20,-4.03 0.27,-4.00 0.76,-3.97 1.22,-3.82 1.69,-3.67 2.10,-3.41 2.52,-3.16 2.86,-2.81 3.20,-2.46 3.45,-2.04 3.70,-1.62 3.84,-1.16 3.98,-0.69 4.00,-0.20 4.03,0.27 4.03,0.27 L 4.03,0.27 Z"></path></g><g transform="translate(378.3589475101878 76.89327133962252) rotate(0 4.905506564905693 16.946295406037677)" stroke="none"><path fill="#1e1e1e" d="M 5.02,-1.15 Q 5.02,-1.15 5.68,2.20 6.33,5.56 7.02,9.69 7.72,13.82 7.96,16.41 8.20,19.00 10.39,21.38 12.59,23.75 14.08,25.98 15.57,28.20 15.94,30.81 16.30,33.42 16.16,34.47 16.02,35.51 15.55,36.45 15.09,37.40 14.34,38.14 13.60,38.89 12.66,39.36 11.72,39.82 10.68,39.97 9.63,40.11 8.60,39.92 7.56,39.72 6.65,39.20 5.73,38.69 5.03,37.90 4.32,37.12 3.91,36.16 3.49,35.19 3.40,34.14 3.31,33.09 3.57,32.07 3.82,31.05 4.38,30.16 4.95,29.27 5.77,28.61 6.59,27.95 7.57,27.59 8.56,27.22 9.61,27.19 10.67,27.16 11.67,27.47 12.68,27.78 13.54,28.39 14.39,29.00 15.01,29.86 15.62,30.71 15.93,31.72 16.24,32.72 16.22,33.77 16.19,34.83 15.83,35.81 15.47,36.80 14.81,37.62 14.15,38.45 13.26,39.01 12.38,39.58 11.36,39.84 10.34,40.09 9.29,40.01 8.24,39.92 7.27,39.51 6.30,39.10 5.52,38.39 4.73,37.69 4.21,36.78 3.69,35.86 3.50,34.83 3.30,33.79 3.30,33.80 3.30,33.80 3.97,34.00 4.64,34.20 3.34,31.78 2.03,29.37 0.73,27.61 -0.56,25.86 -1.74,22.58 -2.92,19.31 -2.85,16.96 -2.78,14.61 -3.02,11.19 -3.26,7.77 -4.14,4.46 -5.02,1.15 -5.09,0.54 -5.15,-0.07 -5.07,-0.69 -4.98,-1.30 -4.76,-1.88 -4.53,-2.46 -4.17,-2.97 -3.80,-3.47 -3.33,-3.88 -2.86,-4.28 -2.31,-4.56 -1.75,-4.84 -1.15,-4.98 -0.54,-5.12 0.07,-5.12 0.69,-5.11 1.29,-4.95 1.90,-4.79 2.44,-4.49 2.99,-4.20 3.45,-3.78 3.91,-3.36 4.25,-2.84 4.60,-2.32 4.81,-1.74 5.02,-1.15 5.02,-1.15 L 5.02,-1.15 Z"></path></g><g transform="translate(83.13664333132061 156.27328666264117) rotate(0 -2.675730853584895 26.311353393584852)" stroke="none"><path fill="#1e1e1e" d="M 3.83,0 Q 3.83,0 3.67,4.87 3.50,9.74 2.87,16.30 2.23,22.86 1.14,29.29 0.05,35.72 -0.67,40.68 -1.41,45.63 -1.46,47.79 -1.52,49.94 -1.68,50.47 -1.85,51.00 -2.17,51.45 -2.49,51.90 -2.94,52.23 -3.39,52.55 -3.93,52.72 -4.46,52.88 -5.01,52.86 -5.57,52.85 -6.09,52.66 -6.61,52.47 -7.04,52.12 -7.47,51.77 -7.77,51.31 -8.07,50.84 -8.21,50.30 -8.34,49.76 -8.30,49.21 -8.25,48.65 -8.03,48.14 -7.81,47.63 -7.44,47.22 -7.07,46.81 -6.59,46.53 -6.11,46.26 -5.56,46.15 -5.02,46.05 -4.47,46.12 -3.92,46.20 -3.42,46.44 -2.92,46.69 -2.53,47.08 -2.14,47.48 -1.89,47.97 -1.64,48.47 -1.57,49.02 -1.49,49.57 -1.60,50.12 -1.70,50.66 -1.97,51.14 -2.25,51.63 -2.66,52.00 -3.07,52.37 -3.58,52.59 -4.09,52.81 -4.64,52.85 -5.20,52.90 -5.74,52.77 -6.28,52.63 -6.74,52.33 -7.21,52.04 -7.56,51.60 -7.91,51.17 -8.10,50.65 -8.29,50.13 -8.31,49.57 -8.32,49.02 -8.32,49.02 -8.32,49.02 -7.80,46.93 -7.29,44.84 -6.67,39.80 -6.05,34.77 -5.17,28.55 -4.28,22.34 -3.89,16.04 -3.50,9.74 -3.67,4.87 -3.83,0 -3.77,-0.45 -3.72,-0.91 -3.55,-1.34 -3.39,-1.78 -3.13,-2.16 -2.86,-2.54 -2.52,-2.84 -2.17,-3.15 -1.76,-3.36 -1.35,-3.58 -0.91,-3.69 -0.46,-3.80 0.00,-3.80 0.46,-3.80 0.91,-3.69 1.35,-3.58 1.76,-3.36 2.17,-3.15 2.52,-2.84 2.86,-2.54 3.13,-2.16 3.39,-1.78 3.55,-1.34 3.72,-0.91 3.77,-0.45 3.83,0.00 3.83,0.00 L 3.83,0 Z"></path></g><g transform="translate(204.4364420271694 165.1923895079242) rotate(0 6.6893271339622515 15.16247483698109)" stroke="none"><path fill="#1e1e1e" d="M -3.16,-2.45 Q -3.16,-2.45 -1.35,-4.88 0.45,-7.30 3.10,-8.93 5.76,-10.57 7.74,-11.44 9.71,-12.31 10.28,-12.44 10.85,-12.58 11.43,-12.58 12.02,-12.57 12.58,-12.43 13.15,-12.28 13.67,-12.01 14.18,-11.73 14.62,-11.34 15.05,-10.95 15.38,-10.46 15.71,-9.98 15.91,-9.43 16.11,-8.88 16.18,-8.30 16.25,-7.72 16.17,-7.14 16.10,-6.56 15.88,-6.02 15.67,-5.47 15.34,-4.99 15.00,-4.52 14.56,-4.13 14.12,-3.75 13.60,-3.48 13.08,-3.21 13.53,1.77 13.97,6.77 10.74,11.93 7.50,17.08 4.34,21.91 1.17,26.73 -0.56,29.99 -2.31,33.24 -3.04,35.93 -3.77,38.62 -4.03,39.05 -4.29,39.47 -4.64,39.82 -5.00,40.18 -5.43,40.43 -5.85,40.69 -6.33,40.84 -6.81,40.99 -7.31,41.01 -7.80,41.04 -8.29,40.95 -8.78,40.86 -9.24,40.65 -9.69,40.45 -10.09,40.14 -10.48,39.83 -10.78,39.44 -11.09,39.04 -11.30,38.59 -11.50,38.13 -11.59,37.64 -11.68,37.15 -11.65,36.65 -11.61,36.16 -11.46,35.68 -11.31,35.20 -7.45,34.46 -3.58,33.71 -0.64,33.82 2.29,33.93 6.24,34.15 10.18,34.36 12.98,34.06 15.78,33.75 17.63,33.20 19.49,32.65 20.17,32.60 20.86,32.56 21.52,32.74 22.19,32.91 22.76,33.29 23.33,33.67 23.75,34.22 24.17,34.76 24.40,35.41 24.62,36.06 24.63,36.74 24.64,37.43 24.42,38.08 24.21,38.74 23.80,39.29 23.39,39.84 22.83,40.23 22.26,40.62 21.60,40.81 20.94,41.00 20.26,40.97 19.57,40.94 18.93,40.69 18.29,40.44 17.76,40.00 17.23,39.56 16.87,38.98 16.51,38.39 16.36,37.72 16.20,37.06 16.27,36.37 16.34,35.69 16.62,35.06 16.90,34.44 17.37,33.93 17.84,33.43 18.44,33.10 19.05,32.77 19.72,32.66 20.40,32.54 21.08,32.64 21.76,32.75 22.37,33.06 22.98,33.38 23.46,33.87 23.93,34.37 24.23,34.99 24.52,35.61 24.60,36.29 24.68,36.97 24.54,37.65 24.40,38.32 24.05,38.91 23.70,39.50 23.18,39.95 22.67,40.40 22.03,40.66 21.39,40.92 21.39,40.92 21.40,40.92 18.90,41.37 16.40,41.82 13.22,41.97 10.04,42.11 5.95,42.18 1.87,42.24 -0.95,40.43 -3.77,38.62 -4.03,39.05 -4.29,39.47 -4.64,39.82 -5.00,40.18 -5.43,40.43 -5.85,40.69 -6.33,40.84 -6.81,40.99 -7.30,41.01 -7.80,41.04 -8.29,40.95 -8.78,40.86 -9.24,40.66 -9.69,40.45 -10.09,40.14 -10.48,39.83 -10.78,39.44 -11.09,39.04 -11.30,38.59 -11.50,38.13 -11.59,37.64 -11.68,37.15 -11.65,36.65 -11.61,36.16 -11.46,35.68 -11.31,35.20 -9.88,32.59 -8.44,29.97 -6.60,26.52 -4.76,23.06 -1.90,18.14 0.94,13.21 3.43,8.70 5.91,4.19 6.89,1.06 7.86,-2.05 8.79,-7.18 9.71,-12.31 10.28,-12.44 10.85,-12.58 11.43,-12.58 12.02,-12.57 12.58,-12.43 13.15,-12.28 13.67,-12.01 14.18,-11.73 14.62,-11.34 15.05,-10.95 15.38,-10.47 15.71,-9.98 15.91,-9.43 16.11,-8.88 16.18,-8.30 16.25,-7.72 16.17,-7.14 16.10,-6.56 15.88,-6.02 15.67,-5.47 15.34,-4.99 15.00,-4.52 14.56,-4.13 14.12,-3.75 13.60,-3.48 13.08,-3.21 12.31,-3.12 11.55,-3.02 9.13,-2.47 6.72,-1.92 4.94,0.26 3.16,2.45 2.82,2.80 2.48,3.14 2.06,3.39 1.65,3.64 1.19,3.79 0.73,3.93 0.25,3.96 -0.22,3.99 -0.70,3.91 -1.17,3.82 -1.61,3.63 -2.06,3.43 -2.44,3.13 -2.82,2.84 -3.12,2.46 -3.42,2.08 -3.61,1.64 -3.81,1.20 -3.90,0.73 -3.99,0.25 -3.96,-0.22 -3.94,-0.70 -3.79,-1.16 -3.65,-1.63 -3.40,-2.04 -3.16,-2.45 -3.16,-2.45 L -3.16,-2.45 Z"></path></g><g transform="translate(340.89871555999923 155.38137637811286) rotate(0 8.919102845283021 15.608429979245273)" stroke="none"><path fill="#1e1e1e" d="M -4.15,-2.30 Q -4.15,-2.30 -2.59,-4.91 -1.03,-7.51 4.17,-9.56 9.38,-11.62 12.21,-12.36 15.04,-13.11 17.71,-11.99 20.39,-10.86 21.67,-7.85 22.95,-4.84 23.23,-2.57 23.52,-0.30 21.69,4.28 19.86,8.88 19.07,11.17 18.27,13.46 19.88,15.36 21.50,17.26 21.34,20.06 21.19,22.86 20.15,25.46 19.12,28.05 17.47,30.90 15.83,33.74 14.28,35.89 12.73,38.04 11.27,39.79 9.81,41.53 7.52,43.55 5.23,45.57 4.38,45.94 3.54,46.30 2.62,46.38 1.70,46.45 0.81,46.23 -0.08,46.01 -0.85,45.51 -1.63,45.01 -2.21,44.30 -2.78,43.58 -3.10,42.71 -3.42,41.85 -3.44,40.93 -3.47,40.01 -3.20,39.13 -2.93,38.25 -2.39,37.50 -1.85,36.75 -1.10,36.22 -0.36,35.68 0.51,35.41 1.39,35.14 2.32,35.16 3.24,35.19 4.10,35.51 4.96,35.82 5.68,36.40 6.40,36.98 6.90,37.75 7.39,38.53 7.61,39.42 7.84,40.32 7.76,41.24 7.69,42.15 7.32,43.00 6.96,43.84 6.34,44.53 5.73,45.22 4.93,45.67 4.12,46.12 3.22,46.30 2.31,46.47 1.40,46.34 0.49,46.22 -0.33,45.81 -1.15,45.40 -1.80,44.75 -2.45,44.10 -2.86,43.27 -3.27,42.45 -3.39,41.53 -3.52,40.62 -3.34,39.72 -3.17,38.81 -2.72,38.01 -2.26,37.21 -1.58,36.60 -0.89,35.98 -0.89,35.98 -0.89,35.98 0.20,35.06 1.31,34.13 3.76,31.23 6.20,28.33 7.39,26.10 8.59,23.87 8.89,21.05 9.20,18.23 9.24,14.13 9.29,10.03 10.25,7.71 11.21,5.38 11.75,0.90 12.28,-3.58 9.22,-2.65 6.16,-1.71 5.16,0.29 4.15,2.30 3.82,2.77 3.48,3.23 3.04,3.60 2.60,3.97 2.09,4.23 1.58,4.48 1.02,4.61 0.46,4.73 -0.11,4.72 -0.68,4.70 -1.23,4.55 -1.79,4.40 -2.29,4.12 -2.79,3.84 -3.21,3.45 -3.63,3.06 -3.94,2.58 -4.26,2.10 -4.45,1.56 -4.64,1.02 -4.69,0.45 -4.75,-0.11 -4.67,-0.68 -4.58,-1.24 -4.37,-1.77 -4.15,-2.31 -4.15,-2.31 L -4.15,-2.30 Z"></path></g><g transform="translate(430.0897440128292 152.705645524528) rotate(0 0.8919102845283646 24.527532824528237)" stroke="none"><path fill="#1e1e1e" d="M 4.52,2.11 Q 4.52,2.11 2.45,5.82 0.38,9.54 -0.86,12.41 -2.11,15.28 -2.61,12.90 -3.11,10.52 -3.32,9.28 -3.54,8.05 -3.53,7.28 -3.52,6.52 -3.33,5.78 -3.14,5.05 -2.78,4.37 -2.42,3.70 -1.90,3.14 -1.39,2.57 -0.76,2.15 -0.13,1.72 0.58,1.46 1.30,1.20 2.05,1.12 2.81,1.03 3.57,1.13 4.32,1.23 5.03,1.51 5.74,1.79 6.37,2.23 6.99,2.67 7.49,3.25 7.99,3.83 8.33,4.51 8.68,5.19 8.85,5.93 9.03,6.67 8.95,9.53 8.88,12.38 9.18,16.02 9.48,19.67 9.74,24.71 10.00,29.75 10.50,33.75 11.00,37.76 11.85,39.96 12.71,42.17 13.58,44.36 14.45,46.54 14.67,47.23 14.88,47.93 14.86,48.65 14.84,49.38 14.59,50.06 14.34,50.74 13.89,51.30 13.44,51.87 12.83,52.26 12.22,52.65 11.51,52.82 10.81,53.00 10.09,52.94 9.36,52.88 8.70,52.60 8.03,52.31 7.49,51.83 6.95,51.34 6.60,50.71 6.24,50.08 6.10,49.37 5.96,48.66 6.06,47.94 6.16,47.22 6.48,46.57 6.80,45.92 7.31,45.41 7.83,44.90 8.48,44.58 9.12,44.25 9.84,44.16 10.56,44.06 11.27,44.19 11.98,44.33 12.62,44.69 13.25,45.04 13.73,45.58 14.22,46.12 14.50,46.79 14.79,47.45 14.85,48.17 14.91,48.90 14.73,49.60 14.56,50.30 14.17,50.91 13.78,51.52 13.21,51.98 12.65,52.43 11.97,52.68 11.29,52.93 10.56,52.95 9.84,52.97 9.15,52.76 8.45,52.55 7.86,52.13 7.28,51.70 6.85,51.12 6.43,50.53 6.43,50.53 6.43,50.53 5.43,47.73 4.43,44.92 3.62,42.10 2.80,39.28 1.78,35.07 0.76,30.86 -0.13,26.23 -1.03,21.60 -2.25,16.96 -3.47,12.33 -3.51,10.19 -3.54,8.05 -3.53,7.29 -3.52,6.52 -3.33,5.78 -3.14,5.05 -2.78,4.38 -2.42,3.70 -1.90,3.14 -1.39,2.57 -0.76,2.15 -0.13,1.72 0.58,1.46 1.30,1.20 2.05,1.12 2.81,1.03 3.57,1.13 4.32,1.23 5.03,1.51 5.74,1.79 6.37,2.23 6.99,2.67 7.49,3.25 7.99,3.83 8.33,4.51 8.68,5.18 8.85,5.93 9.03,6.67 9.11,7.68 9.20,8.68 9.46,10.84 9.72,13.00 9.56,15.96 9.41,18.92 7.55,22.37 5.69,25.81 2.01,26.33 -1.67,26.84 -4.08,26.43 -6.49,26.01 -8.51,25.02 -10.53,24.02 -11.51,22.00 -12.49,19.98 -11.33,15.87 -10.16,11.76 -8.86,8.80 -7.56,5.83 -6.04,1.86 -4.52,-2.11 -4.20,-2.62 -3.88,-3.13 -3.45,-3.55 -3.02,-3.97 -2.50,-4.27 -1.98,-4.57 -1.40,-4.75 -0.83,-4.92 -0.23,-4.94 0.36,-4.97 0.96,-4.86 1.55,-4.74 2.09,-4.48 2.64,-4.23 3.10,-3.85 3.57,-3.48 3.94,-3.00 4.30,-2.52 4.54,-1.97 4.78,-1.41 4.88,-0.82 4.98,-0.23 4.94,0.36 4.89,0.96 4.70,1.53 4.52,2.11 4.52,2.11 L 4.52,2.11 Z"></path></g><g transform="translate(98.29911816830173 36.757308535849006) rotate(0 6.243371991698098 26.311353393584852)" stroke="none"><path fill="#1e1e1e" d="M 4.16,-0.64 Q 4.16,-0.64 4.98,6.05 5.79,12.75 6.57,17.32 7.35,21.89 8.64,27.11 9.94,32.34 11.21,36.60 12.49,40.86 13.30,42.94 14.12,45.01 15.22,48.08 16.32,51.15 16.34,51.81 16.36,52.46 16.17,53.09 15.98,53.71 15.60,54.25 15.22,54.78 14.68,55.16 14.15,55.55 13.53,55.74 12.90,55.93 12.25,55.92 11.59,55.90 10.98,55.67 10.36,55.45 9.85,55.04 9.34,54.63 8.98,54.08 8.63,53.53 8.47,52.89 8.31,52.26 8.36,51.60 8.42,50.95 8.67,50.35 8.93,49.75 9.37,49.26 9.80,48.77 10.37,48.45 10.94,48.12 11.59,48.00 12.23,47.87 12.88,47.96 13.53,48.05 14.12,48.34 14.70,48.63 15.17,49.09 15.63,49.55 15.92,50.14 16.22,50.73 16.31,51.38 16.39,52.02 16.27,52.67 16.15,53.31 15.83,53.88 15.51,54.45 15.02,54.89 14.53,55.33 13.93,55.59 13.33,55.85 12.68,55.90 12.02,55.96 11.39,55.80 10.75,55.64 10.20,55.29 9.65,54.94 9.24,54.43 8.83,53.92 8.60,53.31 8.37,52.69 8.37,52.69 8.37,52.69 8.22,51.39 8.07,50.08 7.35,46.41 6.62,42.73 5.14,38.38 3.67,34.03 2.10,28.66 0.54,23.28 -0.57,18.60 -1.69,13.91 -2.93,7.27 -4.16,0.64 -4.18,0.13 -4.19,-0.37 -4.09,-0.87 -3.98,-1.36 -3.76,-1.82 -3.54,-2.28 -3.21,-2.67 -2.89,-3.06 -2.48,-3.36 -2.07,-3.66 -1.60,-3.86 -1.13,-4.05 -0.63,-4.13 -0.13,-4.21 0.37,-4.16 0.87,-4.12 1.35,-3.95 1.83,-3.79 2.26,-3.51 2.69,-3.24 3.04,-2.87 3.39,-2.50 3.64,-2.06 3.89,-1.61 4.02,-1.12 4.16,-0.64 4.16,-0.64 L 4.16,-0.64 Z"></path></g><g transform="translate(206.220262596226 48.352142234716894) rotate(0 18.730115975094293 15.608429979245244)" stroke="none"><path fill="#1e1e1e" d="M -1.66,-4.56 Q -1.66,-4.56 1.16,-5.58 3.99,-6.59 7.72,-7.48 11.46,-8.36 16.06,-8.82 20.66,-9.28 23.13,-9.91 25.61,-10.53 27.93,-10.92 30.25,-11.30 32.41,-11.42 34.56,-11.54 36.92,-10.36 39.28,-9.19 40.49,-7.18 41.70,-5.18 42.09,-2.68 42.48,-0.18 41.38,3.42 40.27,7.04 39.34,9.28 38.40,11.53 35.62,10.01 32.83,8.50 36.53,9.24 40.22,9.98 41.57,12.70 42.92,15.43 41.49,19.76 40.05,24.10 36.46,27.66 32.87,31.23 30.49,33.37 28.11,35.51 26.31,37.04 24.51,38.58 22.48,40.06 20.45,41.54 19.79,42.11 19.12,42.68 18.31,43.01 17.49,43.34 16.62,43.40 15.74,43.45 14.89,43.22 14.05,42.99 13.32,42.50 12.59,42.01 12.05,41.32 11.52,40.62 11.23,39.79 10.95,38.96 10.94,38.08 10.94,37.20 11.21,36.37 11.49,35.54 12.02,34.83 12.54,34.13 13.27,33.64 13.99,33.14 14.84,32.90 15.68,32.66 16.56,32.70 17.43,32.75 18.25,33.07 19.07,33.39 19.74,33.95 20.41,34.52 20.87,35.27 21.33,36.01 21.52,36.87 21.71,37.73 21.62,38.60 21.53,39.47 21.17,40.27 20.81,41.07 20.21,41.71 19.61,42.35 18.83,42.77 18.06,43.18 17.19,43.33 16.33,43.48 15.46,43.34 14.59,43.20 13.82,42.80 13.04,42.39 12.43,41.75 11.82,41.12 11.45,40.33 11.08,39.53 10.98,38.66 10.88,37.79 11.06,36.93 11.25,36.07 11.70,35.32 12.14,34.56 12.14,34.56 12.14,34.56 14.34,32.82 16.54,31.08 18.89,29.56 21.25,28.03 23.30,26.10 25.35,24.16 28.25,20.51 31.16,16.86 32.98,18.04 34.80,19.22 32.15,18.43 29.50,17.63 29.01,12.42 28.52,7.22 29.42,5.26 30.31,3.30 31.97,0.43 33.62,-2.44 30.48,-2.29 27.34,-2.14 24.61,-1.69 21.89,-1.24 17.86,-0.38 13.84,0.47 10.56,1.48 7.29,2.49 4.47,3.53 1.66,4.56 1.09,4.69 0.51,4.83 -0.06,4.82 -0.65,4.81 -1.21,4.66 -1.78,4.51 -2.30,4.24 -2.81,3.96 -3.24,3.56 -3.68,3.17 -4.00,2.68 -4.33,2.19 -4.53,1.64 -4.73,1.09 -4.79,0.51 -4.85,-0.06 -4.78,-0.64 -4.70,-1.22 -4.48,-1.77 -4.27,-2.31 -3.93,-2.79 -3.59,-3.27 -3.14,-3.65 -2.70,-4.03 -2.18,-4.30 -1.66,-4.56 -1.66,-4.56 L -1.66,-4.56 Z"></path></g><g transform="translate(11.783820569056616 516.6050416120743) rotate(0 35.676411381132 15.60842997924523)" stroke="none"><path fill="#1e1e1e" d="M -3.86,-2.80 Q -3.86,-2.80 -1.73,-5.57 0.38,-8.34 2.63,-11.58 4.87,-14.82 6.87,-17.86 8.87,-20.90 10.68,-24.38 12.49,-27.85 14.90,-31.23 17.31,-34.60 20.41,-34.19 23.50,-33.78 25.31,-30.96 27.12,-28.14 27.51,-22.49 27.90,-16.84 28.15,-9.72 28.39,-2.60 28.66,4.49 28.92,11.58 29.48,17.86 30.03,24.13 30.48,29.67 30.93,35.22 31.51,38.50 32.09,41.79 32.84,45.16 33.59,48.54 34.38,51.75 35.18,54.95 36.04,57.61 36.89,60.26 35.99,62.43 35.09,64.61 32.34,66.09 29.58,67.56 27.28,67.78 24.99,67.99 22.75,68.13 20.51,68.27 18.24,68.40 15.97,68.54 15.48,68.57 14.99,68.61 14.25,68.52 13.51,68.43 12.82,68.16 12.12,67.90 11.51,67.48 10.90,67.05 10.40,66.50 9.91,65.94 9.56,65.28 9.21,64.62 9.04,63.90 8.86,63.18 8.86,62.43 8.86,61.69 9.03,60.96 9.21,60.24 9.56,59.58 9.90,58.92 10.40,58.36 10.89,57.81 11.50,57.38 12.12,56.96 12.81,56.69 13.51,56.43 14.25,56.34 14.99,56.25 18.10,56.31 21.20,56.36 25.62,56.78 30.04,57.20 36.27,57.53 42.51,57.87 50.15,57.61 57.80,57.36 61.51,56.98 65.22,56.61 66.83,56.24 68.43,55.87 69.11,55.90 69.79,55.93 70.43,56.17 71.06,56.41 71.59,56.84 72.12,57.28 72.48,57.85 72.84,58.43 72.99,59.10 73.15,59.76 73.09,60.44 73.02,61.12 72.75,61.74 72.47,62.36 72.01,62.86 71.55,63.36 70.95,63.69 70.35,64.02 69.68,64.14 69.01,64.26 68.34,64.16 67.66,64.06 67.06,63.75 66.45,63.44 65.98,62.95 65.50,62.47 65.20,61.85 64.91,61.24 64.82,60.56 64.74,59.89 64.88,59.22 65.01,58.55 65.36,57.96 65.70,57.37 66.21,56.92 66.72,56.48 67.35,56.21 67.98,55.95 68.66,55.91 69.34,55.86 70.00,56.03 70.66,56.20 71.23,56.58 71.80,56.95 72.22,57.49 72.64,58.02 72.87,58.67 73.09,59.31 73.10,59.99 73.11,60.67 72.91,61.32 72.70,61.97 72.29,62.52 71.89,63.06 71.33,63.46 70.77,63.85 70.12,64.04 69.47,64.23 69.47,64.23 69.47,64.23 67.82,64.27 66.18,64.30 62.26,64.88 58.33,65.45 50.42,66.22 42.51,66.99 36.27,67.32 30.04,67.66 25.62,68.07 21.20,68.49 18.10,68.55 14.99,68.61 14.25,68.52 13.51,68.43 12.82,68.16 12.12,67.90 11.51,67.48 10.90,67.05 10.40,66.50 9.91,65.94 9.56,65.28 9.21,64.62 9.04,63.90 8.86,63.18 8.86,62.43 8.86,61.69 9.03,60.96 9.21,60.24 9.56,59.58 9.90,58.92 10.40,58.36 10.89,57.81 11.50,57.38 12.12,56.96 12.81,56.70 13.51,56.43 14.25,56.34 14.99,56.25 16.72,56.36 18.44,56.47 20.65,56.59 22.85,56.70 25.05,58.48 27.24,60.27 27.05,58.10 26.86,55.94 26.78,52.95 26.70,49.97 26.00,46.37 25.31,42.78 24.90,39.33 24.49,35.87 23.82,30.39 23.15,24.90 22.28,18.50 21.40,12.09 20.72,5.04 20.05,-2.00 19.28,-8.86 18.50,-15.73 17.95,-21.37 17.40,-27.02 20.45,-27.66 23.50,-28.30 22.58,-26.32 21.65,-24.34 19.92,-22.20 18.19,-20.06 16.95,-18.29 15.71,-16.51 13.83,-13.50 11.94,-10.48 9.88,-6.71 7.81,-2.94 5.83,-0.06 3.86,2.80 3.46,3.22 3.07,3.65 2.59,3.96 2.11,4.28 1.57,4.47 1.02,4.66 0.45,4.71 -0.11,4.77 -0.68,4.68 -1.25,4.60 -1.78,4.38 -2.32,4.17 -2.78,3.83 -3.25,3.49 -3.62,3.05 -3.99,2.61 -4.24,2.09 -4.50,1.58 -4.62,1.02 -4.75,0.45 -4.73,-0.11 -4.72,-0.69 -4.57,-1.24 -4.42,-1.80 -4.14,-2.30 -3.86,-2.80 -3.86,-2.80 L -3.86,-2.80 Z"></path></g><g transform="translate(92.05574617660363 535.3351575871686) rotate(0 71.79877790452812 8.027192560754685)" stroke="none"><path fill="#1e1e1e" d="M 0,-3.66 Q 0,-3.66 7.17,-3.52 14.35,-3.38 23.30,-3.28 32.25,-3.17 43.49,-3.10 54.73,-3.02 67.46,-2.97 80.18,-2.91 92.52,-2.87 104.85,-2.83 114.19,-2.80 123.54,-2.78 128.79,-2.75 134.04,-2.73 136.53,-2.97 139.02,-3.22 136.34,-3.96 133.66,-4.70 131.19,-6.67 128.71,-8.63 126.54,-10.21 124.37,-11.78 122.36,-13.09 120.36,-14.40 120.57,-14.22 120.78,-14.04 120.29,-14.39 119.79,-14.74 119.40,-15.20 119.00,-15.66 118.72,-16.20 118.45,-16.74 118.31,-17.33 118.17,-17.92 118.18,-18.53 118.18,-19.13 118.34,-19.72 118.49,-20.31 118.78,-20.84 119.06,-21.38 119.47,-21.83 119.88,-22.27 120.38,-22.61 120.88,-22.95 121.45,-23.16 122.02,-23.37 122.63,-23.44 123.23,-23.50 123.83,-23.42 124.43,-23.34 125.00,-23.12 125.56,-22.90 129.54,-19.44 133.52,-15.97 135.98,-13.68 138.44,-11.38 140.58,-8.87 142.71,-6.37 144.76,-2.08 146.82,2.20 145.47,5.64 144.13,9.09 139.29,11.72 134.45,14.36 125.86,16.47 117.28,18.58 111.01,20.07 104.75,21.57 97.86,25.56 90.96,29.56 88.03,31.78 85.09,34.01 83.80,35.39 82.51,36.77 82.03,37.10 81.54,37.42 80.98,37.58 80.42,37.73 79.84,37.70 79.26,37.67 78.72,37.45 78.18,37.23 77.73,36.86 77.29,36.48 76.99,35.98 76.69,35.48 76.57,34.91 76.44,34.34 76.51,33.76 76.57,33.18 76.82,32.66 77.06,32.13 77.46,31.71 77.87,31.28 78.38,31.01 78.90,30.74 79.47,30.65 80.05,30.55 80.62,30.65 81.19,30.74 81.71,31.02 82.22,31.29 82.62,31.72 83.02,32.14 83.27,32.67 83.51,33.20 83.57,33.78 83.63,34.36 83.51,34.92 83.38,35.49 83.08,35.99 82.78,36.49 82.33,36.87 81.89,37.24 81.35,37.46 80.80,37.67 80.22,37.70 79.64,37.73 79.08,37.57 78.52,37.42 78.04,37.09 77.56,36.76 77.21,36.30 76.85,35.83 76.67,35.28 76.48,34.73 76.49,34.15 76.49,33.56 76.67,33.01 76.86,32.46 77.22,32.00 77.57,31.53 77.57,31.54 77.57,31.54 79.28,30.08 81.00,28.62 84.24,26.16 87.48,23.70 95.11,19.07 102.75,14.45 108.95,12.57 115.15,10.68 122.61,8.46 130.08,6.25 132.73,2.98 135.38,-0.28 133.77,-2.27 132.16,-4.27 129.44,-6.53 126.72,-8.80 123.75,-11.42 120.78,-14.04 120.29,-14.39 119.79,-14.74 119.40,-15.20 119.00,-15.66 118.72,-16.20 118.45,-16.74 118.31,-17.33 118.17,-17.92 118.18,-18.53 118.18,-19.13 118.34,-19.72 118.49,-20.31 118.78,-20.84 119.06,-21.38 119.47,-21.82 119.88,-22.27 120.38,-22.61 120.88,-22.95 121.45,-23.16 122.02,-23.37 122.63,-23.44 123.23,-23.50 123.83,-23.42 124.43,-23.34 125.00,-23.12 125.56,-22.90 125.90,-22.37 126.24,-21.85 128.08,-20.43 129.92,-19.02 132.04,-17.31 134.16,-15.59 136.95,-13.44 139.75,-11.28 141.89,-9.16 144.03,-7.04 144.87,-3.14 145.71,0.76 142.37,1.99 139.02,3.22 136.53,2.97 134.04,2.73 128.79,2.75 123.54,2.78 114.19,2.80 104.85,2.83 92.52,2.87 80.18,2.91 67.46,2.97 54.73,3.02 43.49,3.10 32.25,3.17 23.30,3.28 14.35,3.38 7.17,3.52 0,3.66 -0.43,3.61 -0.87,3.55 -1.28,3.40 -1.70,3.24 -2.06,2.99 -2.42,2.74 -2.72,2.41 -3.01,2.08 -3.22,1.69 -3.42,1.29 -3.53,0.87 -3.63,0.44 -3.63,-0.00 -3.63,-0.44 -3.53,-0.87 -3.42,-1.29 -3.22,-1.69 -3.01,-2.08 -2.72,-2.41 -2.42,-2.74 -2.06,-2.99 -1.70,-3.24 -1.28,-3.40 -0.87,-3.55 -0.43,-3.61 0.00,-3.66 0.00,-3.66 L 0,-3.66 Z"></path></g></svg>